# This file uses centimeters as units for non-parametric coordinates.

mtllib Ground.mtl
g default
v -24.000000 5.853352 23.800020
v -23.800020 5.853352 24.000000
v -23.800020 7.316507 23.800020
v 23.800020 7.316507 23.800020
v 23.800020 5.853352 24.000000
v 24.000000 5.853352 23.800020
v -24.000000 5.853352 -23.800020
v -23.800020 7.316507 -23.800020
v -23.800020 5.853352 -24.000000
v 23.800020 5.853352 -24.000000
v 23.800020 7.316507 -23.800020
v 24.000000 5.853352 -23.800020
v -23.800020 0.000000 24.000000
v -24.000000 0.000000 23.800020
v 24.000000 0.000000 23.800020
v 23.800020 0.000000 24.000000
v -24.000000 0.000000 -23.800020
v -23.800020 0.000000 -24.000000
v 23.800020 0.000000 -24.000000
v 24.000000 0.000000 -23.800020
vt 0.300000 0.980000
vt 0.300000 0.700000
vt 0.700000 0.700000
vt 0.700000 0.980000
vt 0.020000 0.700000
vt 0.300000 1.000000
vt 0.280000 1.000000
vt 0.020000 0.300000
vt 0.300000 0.300000
vt 0.020000 0.180000
vt 0.700000 0.020000
vt 0.700000 0.300000
vt 0.000000 0.300000
vt -0.000000 0.180000
vt 0.980000 0.700000
vt 1.000000 0.700000
vt 0.700000 1.000000
vt 0.980000 0.300000
vt 0.700000 0.000000
vt 1.000000 0.300000
vt 0.980000 0.170000
vt 1.000000 0.170000
vt 0.720000 0.980000
vt 0.720000 1.000000
vt 0.300000 -0.000000
vt 0.300000 0.020000
vt 0.280000 0.980000
vt 0.000000 0.700000
vn -0.990789 0.135418 0.000000
vn -0.990789 0.135418 0.000000
vn -0.990789 0.135418 0.000000
vn -0.990789 0.135418 0.000000
vn -0.707108 0.000000 0.707106
vn -0.707108 0.000000 0.707106
vn -0.707108 0.000000 0.707106
vn -0.707108 0.000000 0.707106
vn 0.000000 0.135418 0.990789
vn 0.000000 0.135418 0.990789
vn 0.000000 0.135418 0.990789
vn 0.000000 0.135418 0.990789
vn 0.990789 0.135418 0.000000
vn 0.990789 0.135418 0.000000
vn 0.990789 0.135418 0.000000
vn 0.990789 0.135418 0.000000
vn 0.707108 0.000000 0.707106
vn 0.707108 0.000000 0.707106
vn 0.707108 0.000000 0.707106
vn 0.707108 0.000000 0.707106
vn -0.707108 0.000000 -0.707106
vn -0.707108 0.000000 -0.707106
vn -0.707108 0.000000 -0.707106
vn -0.707108 0.000000 -0.707106
vn 0.000000 0.135418 -0.990789
vn 0.000000 0.135418 -0.990789
vn 0.000000 0.135418 -0.990789
vn 0.000000 0.135418 -0.990789
vn 0.707108 0.000000 -0.707106
vn 0.707108 0.000000 -0.707106
vn 0.707108 0.000000 -0.707106
vn 0.707108 0.000000 -0.707106
vn 0.000000 0.000000 1.000000
vn 0.000000 0.000000 1.000000
vn 0.000000 0.000000 1.000000
vn 0.000000 0.000000 1.000000
vn 0.000000 1.000000 0.000000
vn 0.000000 1.000000 0.000000
vn 0.000000 1.000000 0.000000
vn 0.000000 1.000000 0.000000
vn 0.000000 0.000000 -1.000000
vn 0.000000 0.000000 -1.000000
vn 0.000000 0.000000 -1.000000
vn 0.000000 0.000000 -1.000000
vn 1.000000 0.000000 0.000000
vn 1.000000 0.000000 0.000000
vn 1.000000 0.000000 0.000000
vn 1.000000 0.000000 0.000000
vn -1.000000 0.000000 0.000000
vn -1.000000 0.000000 0.000000
vn -1.000000 0.000000 0.000000
vn -1.000000 0.000000 0.000000
vn -0.703822 0.096197 0.703833
vn -0.703822 0.096197 0.703833
vn -0.703822 0.096197 0.703833
vn 0.703822 0.096197 0.703833
vn 0.703822 0.096197 0.703833
vn 0.703822 0.096197 0.703833
vn -0.703822 0.096197 -0.703833
vn -0.703822 0.096197 -0.703833
vn -0.703822 0.096197 -0.703833
vn 0.703822 0.096197 -0.703833
vn 0.703822 0.096197 -0.703833
vn 0.703822 0.096197 -0.703833
s off
g pCube1
usemtl lambert2SG
f 1/1/1 3/2/2 8/3/3 7/4/4
f 2/27/5 1/1/6 14/6/7 13/7/8
f 3/2/9 2/5/10 5/8/11 4/9/12
f 4/9/13 6/26/14 12/11/15 11/12/16
f 6/10/17 5/8/18 16/13/19 15/14/20
f 7/4/21 9/23/22 18/24/23 17/17/24
f 9/15/25 8/3/26 11/12/27 10/18/28
f 10/18/29 12/21/30 20/22/31 19/20/32
f 2/5/33 13/28/34 16/13/35 5/8/36
f 3/2/37 4/9/38 11/12/39 8/3/40
f 9/15/41 10/18/42 19/20/43 18/16/44
f 6/26/45 15/25/46 20/19/47 12/11/48
f 7/4/49 17/17/50 14/6/51 1/1/52
f 1/1/53 2/27/54 3/2/55
f 4/9/56 5/8/57 6/10/58
f 7/4/59 8/3/60 9/23/61
f 10/18/62 11/12/63 12/21/64
