# This file uses centimeters as units for non-parametric coordinates.

mtllib ConcreteBarricade.mtl
g default
v -3.487961 0.000000 0.138297
v 3.487961 0.000000 0.138297
v -3.487961 4.153845 0.138297
v 3.487961 4.153845 0.138297
v -3.487961 4.153845 -0.138297
v 3.487961 4.153845 -0.138297
v -3.487961 0.000000 -0.138297
v 3.487961 0.000000 -0.138297
v 3.487961 4.153843 0.524386
v -3.487961 4.153843 0.524386
v -3.487961 4.153845 -0.524386
v 3.487961 4.153845 -0.524386
v -3.487961 1.101546 0.138297
v -3.487961 1.101544 0.524386
v 3.487961 1.101544 0.524386
v 3.487961 1.101546 0.138297
v 3.487961 1.101546 -0.138297
v 3.487961 1.101546 -0.524386
v -3.487961 1.101546 -0.524386
v -3.487961 1.101546 -0.138297
v -3.487961 0.000000 1.290891
v 3.487961 0.000000 1.290891
v 3.487961 0.428842 1.290891
v -3.487961 0.428842 1.290891
v 3.487961 0.428842 -1.290891
v -3.487961 0.428842 -1.290891
v 3.487961 0.000000 -1.290891
v -3.487961 0.000000 -1.290891
v 3.710615 1.101546 0.524386
v 3.710615 1.101546 0.138297
v 3.710615 4.153845 0.138297
v 3.710615 4.153845 0.524386
v 3.710615 0.000000 0.138297
v 3.710615 0.000000 0.524386
v 3.710615 0.428842 1.290891
v 3.710615 0.000000 1.290891
v -3.710615 1.101546 0.138297
v -3.710615 4.153845 0.138297
v -3.710615 1.101546 0.524386
v -3.710615 4.153845 0.524386
v -3.710615 0.000000 0.138297
v -3.710615 0.000000 0.524386
v -3.710615 0.000000 1.290891
v -3.710615 0.428842 1.290891
v 3.710615 4.153845 -0.138297
v 3.710615 1.101546 -0.138297
v 3.710615 1.101546 -0.524386
v 3.710615 4.153845 -0.524386
v 3.710615 0.000000 -0.138297
v 3.710615 0.000000 -0.524386
v 3.710615 0.000000 -1.290891
v 3.710615 0.428842 -1.290891
v -3.710615 1.101546 -0.524386
v -3.710615 1.101546 -0.138297
v -3.710615 4.153845 -0.138297
v -3.710615 4.153845 -0.524386
v -3.710615 0.000000 -0.138297
v -3.710615 0.000000 -0.524386
v -3.710615 0.428842 -1.290891
v -3.710615 0.000000 -1.290891
vt 0.945244 0.081798
vt 0.753429 0.670497
vt 0.021440 0.520829
vt 0.689435 0.408835
vt 0.021050 0.408835
vt 0.889931 0.102223
vt 0.753429 0.020170
vt 0.694634 0.520829
vt 0.021050 0.113760
vt 0.689435 0.113760
vt 0.933558 0.081798
vt 0.933558 0.327193
vt 0.945244 0.327193
vt 0.899755 0.734935
vt 0.925989 0.102223
vt 0.925989 0.388628
vt 0.911440 0.734935
vt 0.779250 0.020170
vt 0.889931 0.388628
vt 0.818794 0.778811
vt 0.911440 0.980330
vt 0.779250 0.670497
vt 0.899755 0.980330
vt 0.945244 0.000000
vt 0.933558 -0.000000
vt 0.899755 0.653137
vt 0.689435 0.041460
vt 0.818794 0.490515
vt 0.021050 0.041460
vt 0.717383 0.670497
vt 0.854868 0.490515
vt 0.854868 0.778811
vt 0.856353 0.878850
vt 0.856353 0.591511
vt 0.892388 0.591511
vt 0.892388 0.878850
vt 0.963962 0.692008
vt 1.000000 0.692008
vt 1.000000 0.981556
vt 0.963962 0.981556
vt 0.818794 0.388628
vt 0.694634 0.814752
vt 0.854868 0.388628
vt 0.021440 0.814752
vt 0.717383 0.020170
vt 0.925989 0.000000
vt 0.815290 0.020170
vt 0.815290 0.670497
vt 0.021050 0.000000
vt 0.689435 0.000000
vt 0.021440 0.408835
vt 0.694634 0.408835
vt 0.717383 0.000000
vt 0.753429 0.000000
vt 0.911440 0.653137
vt 0.951087 0.327193
vt 0.889931 0.000000
vt 0.856353 0.489186
vt 0.892388 0.489186
vt 1.000000 0.590148
vt 0.963962 0.590148
vt 0.818794 0.039720
vt 0.818794 0.000000
vt 0.951087 0.081798
vt 0.951087 0.000000
vt 0.917283 0.734935
vt 0.917283 0.980330
vt 0.917283 0.653137
vt 0.927716 0.081798
vt 0.000000 0.408835
vt 0.000000 0.113760
vt 0.000000 0.041460
vt 0.000000 0.000000
vt 0.711056 0.113760
vt 0.711056 0.408835
vt 0.711056 0.041460
vt 0.711056 0.000000
vt 0.694634 0.451093
vt 0.021440 0.451093
vt 0.716167 0.520829
vt 0.716167 0.814752
vt 0.716167 0.451093
vt 0.716167 0.408835
vt 0.000000 0.814752
vt 0.000000 0.520829
vt 0.000000 0.451093
vt 0.000000 0.408835
vt 0.753429 0.691890
vt 0.717383 0.691890
vt 0.779250 0.000081
vt 0.815290 0.000081
vt 0.815290 0.691911
vt 0.779250 0.691911
vt 0.925470 0.388628
vt 0.925470 0.427995
vt 0.963062 0.489186
vt 0.963062 0.528942
vt 0.927716 0.327193
vt 0.927716 0.000000
vt 0.893912 0.980330
vt 0.893912 0.734935
vt 0.893912 0.653137
vt 0.893912 0.629803
vt 0.893912 0.590148
vn 0.000000 0.000000 1.000000
vn 0.000000 0.000000 1.000000
vn 0.000000 0.000000 1.000000
vn 0.000000 0.000000 1.000000
vn 0.000000 1.000000 0.000000
vn 0.000000 1.000000 0.000000
vn 0.000000 1.000000 0.000000
vn 0.000000 1.000000 0.000000
vn 0.000000 0.000000 -1.000000
vn 0.000000 0.000000 -1.000000
vn 0.000000 0.000000 -1.000000
vn 0.000000 0.000000 -1.000000
vn 1.000000 0.000000 0.000000
vn 1.000000 0.000000 0.000000
vn 1.000000 0.000000 0.000000
vn 1.000000 0.000000 0.000000
vn -1.000000 0.000000 0.000000
vn -1.000000 0.000000 0.000000
vn -1.000000 0.000000 0.000000
vn -1.000000 0.000000 0.000000
vn 1.000000 0.000000 0.000000
vn 1.000000 0.000000 0.000000
vn 1.000000 0.000000 0.000000
vn 1.000000 0.000000 0.000000
vn 0.000000 1.000000 0.000004
vn 0.000000 1.000000 0.000004
vn 0.000000 1.000000 0.000004
vn 0.000000 1.000000 0.000004
vn -1.000000 0.000000 0.000000
vn -1.000000 0.000000 0.000000
vn -1.000000 0.000000 0.000000
vn -1.000000 0.000000 0.000000
vn 0.000000 1.000000 0.000000
vn 0.000000 1.000000 0.000000
vn 0.000000 1.000000 0.000000
vn 0.000000 1.000000 0.000000
vn 1.000000 0.000000 0.000000
vn 1.000000 0.000000 0.000000
vn 1.000000 0.000000 0.000000
vn 1.000000 0.000000 0.000000
vn -1.000000 0.000000 0.000000
vn -1.000000 0.000000 0.000000
vn -1.000000 0.000000 0.000000
vn -1.000000 0.000000 0.000000
vn -1.000000 0.000000 0.000000
vn -1.000000 0.000000 0.000000
vn 0.000000 0.000000 1.000000
vn 0.000000 0.000000 1.000000
vn 0.000000 0.000000 1.000000
vn 0.000000 0.000000 1.000000
vn 1.000000 0.000000 0.000000
vn 1.000000 0.000000 0.000000
vn 1.000000 0.000000 0.000000
vn 1.000000 0.000000 0.000000
vn 1.000000 0.000000 0.000000
vn 1.000000 0.000000 0.000000
vn 0.000000 0.000000 -1.000000
vn 0.000000 0.000000 -1.000000
vn 0.000000 0.000000 -1.000000
vn 0.000000 0.000000 -1.000000
vn -1.000000 0.000000 0.000000
vn -1.000000 0.000000 0.000000
vn -1.000000 0.000000 0.000000
vn -1.000000 0.000000 0.000000
vn 1.000000 0.000000 0.000000
vn 1.000000 0.000000 0.000000
vn 1.000000 0.000000 0.000000
vn 1.000000 0.000000 0.000000
vn 0.000000 0.751599 0.659621
vn 0.000000 0.751599 0.659621
vn 0.000000 0.751599 0.659621
vn 0.000000 0.751599 0.659621
vn -1.000000 0.000000 0.000000
vn -1.000000 0.000000 0.000000
vn -1.000000 0.000000 0.000000
vn -1.000000 0.000000 0.000000
vn 0.000000 0.751598 -0.659621
vn 0.000000 0.751598 -0.659621
vn 0.000000 0.751598 -0.659621
vn 0.000000 0.751598 -0.659621
vn 1.000000 0.000000 0.000000
vn 1.000000 0.000000 0.000000
vn 1.000000 0.000000 0.000000
vn 1.000000 0.000000 0.000000
vn -1.000000 0.000000 0.000000
vn -1.000000 0.000000 0.000000
vn -1.000000 0.000000 0.000000
vn -1.000000 0.000000 0.000000
vn 0.000000 0.000000 -1.000000
vn 0.000000 0.000000 -1.000000
vn 0.000000 0.000000 -1.000000
vn 0.000000 0.000000 -1.000000
vn -0.000003 1.000000 0.000002
vn -0.000003 1.000000 0.000002
vn -0.000003 1.000000 0.000002
vn -0.000003 1.000000 0.000002
vn 0.000003 0.000000 1.000000
vn 0.000003 0.000000 1.000000
vn 0.000003 0.000000 1.000000
vn 0.000003 0.000000 1.000000
vn 0.000000 0.000000 -1.000000
vn 0.000000 0.000000 -1.000000
vn 0.000000 0.000000 -1.000000
vn 0.000000 0.000000 -1.000000
vn -0.000001 0.751599 0.659621
vn -0.000001 0.751599 0.659621
vn -0.000001 0.751599 0.659621
vn -0.000001 0.751599 0.659621
vn 0.000000 0.000000 1.000000
vn 0.000000 0.000000 1.000000
vn 0.000000 0.000000 1.000000
vn 0.000000 0.000000 1.000000
vn 0.000000 0.000000 -1.000000
vn 0.000000 0.000000 -1.000000
vn 0.000000 0.000000 -1.000000
vn 0.000000 0.000000 -1.000000
vn -0.000003 0.000000 1.000000
vn -0.000003 0.000000 1.000000
vn -0.000003 0.000000 1.000000
vn -0.000003 0.000000 1.000000
vn 0.000003 1.000000 0.000002
vn 0.000003 1.000000 0.000002
vn 0.000003 1.000000 0.000002
vn 0.000003 1.000000 0.000002
vn 0.000000 0.000000 -1.000000
vn 0.000000 0.000000 -1.000000
vn 0.000000 0.000000 -1.000000
vn 0.000000 0.000000 -1.000000
vn 0.000000 0.000000 1.000000
vn 0.000000 0.000000 1.000000
vn 0.000000 0.000000 1.000000
vn 0.000000 0.000000 1.000000
vn 0.000002 0.751599 0.659620
vn 0.000002 0.751599 0.659620
vn 0.000002 0.751599 0.659620
vn 0.000002 0.751599 0.659620
vn 0.000000 0.000000 1.000000
vn 0.000000 0.000000 1.000000
vn 0.000000 0.000000 1.000000
vn 0.000000 0.000000 1.000000
vn 0.000000 0.000000 -1.000000
vn 0.000000 0.000000 -1.000000
vn 0.000000 0.000000 -1.000000
vn 0.000000 0.000000 -1.000000
vn 0.000000 1.000000 0.000000
vn 0.000000 1.000000 0.000000
vn 0.000000 1.000000 0.000000
vn 0.000000 1.000000 0.000000
vn 0.000000 0.000000 1.000000
vn 0.000000 0.000000 1.000000
vn 0.000000 0.000000 1.000000
vn 0.000000 0.000000 1.000000
vn 0.000000 0.000000 -1.000000
vn 0.000000 0.000000 -1.000000
vn 0.000000 0.000000 -1.000000
vn 0.000000 0.000000 -1.000000
vn 0.000000 0.751598 -0.659621
vn 0.000000 0.751598 -0.659621
vn 0.000000 0.751598 -0.659621
vn 0.000000 0.751598 -0.659621
vn 0.000000 0.000000 1.000000
vn 0.000000 0.000000 1.000000
vn 0.000000 0.000000 1.000000
vn 0.000000 0.000000 1.000000
vn 0.000000 1.000000 0.000000
vn 0.000000 1.000000 0.000000
vn 0.000000 1.000000 0.000000
vn 0.000000 1.000000 0.000000
vn 0.000000 0.000000 -1.000000
vn 0.000000 0.000000 -1.000000
vn 0.000000 0.000000 -1.000000
vn 0.000000 0.000000 -1.000000
vn 0.000000 0.000000 1.000000
vn 0.000000 0.000000 1.000000
vn 0.000000 0.000000 1.000000
vn 0.000000 0.000000 1.000000
vn 0.000000 0.751598 -0.659621
vn 0.000000 0.751598 -0.659621
vn 0.000000 0.751598 -0.659621
vn 0.000000 0.751598 -0.659621
vn 0.000000 0.000000 -1.000000
vn 0.000000 0.000000 -1.000000
vn 0.000000 0.000000 -1.000000
vn 0.000000 0.000000 -1.000000
s off
g pCube1
usemtl initialShadingGroup
f 14/3/1 15/8/2 9/42/3 10/44/4
f 3/2/5 4/7/6 6/18/7 5/22/8
f 11/4/9 12/5/10 18/9/11 19/10/12
s 1
f 16/1/13 17/11/14 6/12/15 4/13/16
s 2
f 20/14/17 13/17/18 3/21/19 5/23/20
s 3
f 29/6/21 30/15/22 31/16/23 32/19/24
s off
f 4/7/25 3/2/26 10/30/27 9/45/28
s 4
f 38/20/29 37/28/30 39/31/31 40/32/32
s off
f 5/22/33 6/18/34 12/47/35 11/48/36
s 5
f 45/33/37 46/34/38 47/35/39 48/36/40
s 6
f 53/37/41 54/38/42 55/39/43 56/40/44
s 4
f 39/31/31 37/28/30 41/41/45 42/43/46
s off
f 21/51/47 22/52/48 23/78/49 24/79/50
s 3
f 33/46/51 30/15/22 29/6/21 34/57/52
s 1
f 2/24/53 8/25/54 17/11/14 16/1/13
s 5
f 47/35/39 46/34/38 49/58/55 50/59/56
s off
f 26/27/57 25/29/58 27/49/59 28/50/60
s 6
f 57/60/61 54/38/42 53/37/41 58/61/62
s 2
f 7/26/63 1/55/64 13/17/18 20/14/17
s off
f 34/57/65 29/6/66 35/62/67 36/63/68
f 15/8/69 14/3/70 24/79/71 23/78/72
f 39/31/73 42/43/74 43/94/75 44/95/76
f 19/10/77 18/9/78 25/29/79 26/27/80
f 47/35/81 50/59/82 51/96/83 52/97/84
f 58/61/85 53/37/86 59/103/87 60/104/88
f 16/1/89 4/13/90 31/56/91 30/64/92
f 4/7/93 9/45/94 32/53/95 31/54/96
f 9/42/97 15/8/98 29/80/99 32/81/100
f 2/24/101 16/1/102 30/64/103 33/65/104
f 15/8/105 23/78/106 35/82/107 29/80/108
f 23/78/109 22/52/110 36/83/111 35/82/112
f 3/21/113 13/17/114 37/66/115 38/67/116
f 14/3/117 10/44/118 40/84/119 39/85/120
f 10/30/121 3/2/122 38/88/123 40/89/124
f 13/17/125 1/55/126 41/68/127 37/66/128
f 21/51/129 24/79/130 44/86/131 43/87/132
f 24/79/133 14/3/134 39/85/135 44/86/136
f 6/12/137 17/11/138 46/69/139 45/98/140
f 18/9/141 12/5/142 48/70/143 47/71/144
f 12/47/145 6/18/146 45/90/147 48/91/148
f 17/11/149 8/25/150 49/99/151 46/69/152
f 27/49/153 25/29/154 52/72/155 51/73/156
f 25/29/157 18/9/158 47/71/159 52/72/160
f 20/14/161 5/23/162 55/100/163 54/101/164
f 5/22/165 11/48/166 56/92/167 55/93/168
f 11/4/169 19/10/170 53/74/171 56/75/172
f 7/26/173 20/14/174 54/101/175 57/102/176
f 19/10/177 26/27/178 59/76/179 53/74/180
f 26/27/181 28/50/182 60/77/183 59/76/184
g default
v -0.500000 -0.500000 0.500000
v 0.500000 -0.500000 0.500000
v -0.500000 0.500000 0.500000
v 0.500000 0.500000 0.500000
v -0.500000 0.500000 -0.500000
v 0.500000 0.500000 -0.500000
v -0.500000 -0.500000 -0.500000
v 0.500000 -0.500000 -0.500000
vt 0.375000 0.000000
vt 0.625000 0.000000
vt 0.375000 0.250000
vt 0.625000 0.250000
vt 0.375000 0.500000
vt 0.625000 0.500000
vt 0.375000 0.750000
vt 0.625000 0.750000
vt 0.375000 1.000000
vt 0.625000 1.000000
vt 0.875000 0.000000
vt 0.875000 0.250000
vt 0.125000 0.000000
vt 0.125000 0.250000
vn 0.000000 0.000000 1.000000
vn 0.000000 0.000000 1.000000
vn 0.000000 0.000000 1.000000
vn 0.000000 0.000000 1.000000
vn 0.000000 1.000000 0.000000
vn 0.000000 1.000000 0.000000
vn 0.000000 1.000000 0.000000
vn 0.000000 1.000000 0.000000
vn 0.000000 0.000000 -1.000000
vn 0.000000 0.000000 -1.000000
vn 0.000000 0.000000 -1.000000
vn 0.000000 0.000000 -1.000000
vn 0.000000 -1.000000 0.000000
vn 0.000000 -1.000000 0.000000
vn 0.000000 -1.000000 0.000000
vn 0.000000 -1.000000 0.000000
vn 1.000000 0.000000 0.000000
vn 1.000000 0.000000 0.000000
vn 1.000000 0.000000 0.000000
vn 1.000000 0.000000 0.000000
vn -1.000000 0.000000 0.000000
vn -1.000000 0.000000 0.000000
vn -1.000000 0.000000 0.000000
vn -1.000000 0.000000 0.000000
s off
g pCube2
usemtl initialShadingGroup
f 61/105/185 62/106/186 64/108/187 63/107/188
f 63/107/189 64/108/190 66/110/191 65/109/192
f 65/109/193 66/110/194 68/112/195 67/111/196
f 67/111/197 68/112/198 62/114/199 61/113/200
f 62/106/201 68/115/202 66/116/203 64/108/204
f 67/117/205 61/105/206 63/107/207 65/118/208
